<svg width="40" height="40" viewBox="0 0 40 40" fill="none" xmlns="http://www.w3.org/2000/svg">
<rect width="40" height="40" rx="20" fill="#0E1729"/>
<rect x="22.7451" y="7.7124" width="5.75163" height="5.75163" rx="2.87582" fill="white"/>
<path fill-rule="evenodd" clip-rule="evenodd" d="M19.0196 12.4185C24.2537 12.4185 28.4967 16.6615 28.4967 21.8956V31.8956H24.5752V30.097C23.0142 31.2284 21.0949 31.8956 19.0196 31.8956C13.8264 31.8956 9.60886 27.7186 9.54325 22.541L9.54248 22.4185V21.8956C9.54248 16.6615 13.7855 12.4185 19.0196 12.4185ZM19.0196 16.34C15.9514 16.34 13.464 18.8273 13.464 21.8956V22.4185C13.464 25.4867 15.9514 27.974 19.0196 27.974C22.0879 27.974 24.5752 25.4867 24.5752 22.4185V21.8956C24.5752 18.8273 22.0879 16.34 19.0196 16.34Z" fill="white"/>
</svg>
